<?xml version="1.0" encoding="UTF-8"?>
<svg id="Min_tegning" data-name="Min tegning" xmlns="http://www.w3.org/2000/svg" xmlns:xlink="http://www.w3.org/1999/xlink" viewBox="0 0 1920 1080">
  <defs>
    <style>
      .cls-1, .cls-2, .cls-3, .cls-4, .cls-5, .cls-6 {
        fill: none;
      }

      .cls-7 {
        clip-path: url(#clippath);
      }

      .cls-8 {
        fill: #0071bc;
      }

      .cls-9 {
        fill: #e6e6e6;
      }

      .cls-10 {
        fill: #f4f3f2;
      }

      .cls-11 {
        fill: #fff;
      }

      .cls-12 {
        fill: #fffbe8;
      }

      .cls-13 {
        fill: #ffdbac;
      }

      .cls-14 {
        fill: #f2a950;
      }

      .cls-15 {
        fill: #666;
      }

      .cls-16, .cls-17 {
        fill: #8e6a49;
      }

      .cls-18 {
        fill: #859de2;
      }

      .cls-19 {
        fill: #364142;
      }

      .cls-20 {
        fill: #4ab9e2;
      }

      .cls-21 {
        fill: #603813;
      }

      .cls-22 {
        fill: #513721;
      }

      .cls-2, .cls-3 {
        stroke-width: 17.35px;
      }

      .cls-2, .cls-3, .cls-4, .cls-23, .cls-5, .cls-17, .cls-24, .cls-6 {
        stroke-miterlimit: 10;
      }

      .cls-2, .cls-3, .cls-4, .cls-24, .cls-6 {
        stroke: #919191;
      }

      .cls-2, .cls-4, .cls-23, .cls-5 {
        stroke-linecap: round;
      }

      .cls-4, .cls-6 {
        stroke-width: 13.88px;
      }

      .cls-23 {
        fill: #070707;
        stroke: #231f20;
      }

      .cls-5 {
        stroke: #c1272d;
        stroke-width: 20.82px;
      }

      .cls-25 {
        fill: url(#radial-gradient-2);
      }

      .cls-17 {
        stroke: #8e6a49;
      }

      .cls-26 {
        opacity: .31;
      }

      .cls-27 {
        opacity: .74;
      }

      .cls-28 {
        opacity: .72;
      }

      .cls-29 {
        fill: url(#radial-gradient);
      }

      .cls-24 {
        fill: #919191;
        stroke-width: .69px;
      }
    </style>
    <clipPath id="clippath">
      <rect class="cls-1" x="11.66" y="10.97" width="1906.21" height="1080.43"/>
    </clipPath>
    <radialGradient id="radial-gradient" cx="952.15" cy="453.84" fx="952.15" fy="453.84" r="12.81" gradientUnits="userSpaceOnUse">
      <stop offset="0" stop-color="#fff"/>
      <stop offset="1" stop-color="#39b54a"/>
    </radialGradient>
    <radialGradient id="radial-gradient-2" cx="1019.01" cy="453.74" fx="1019.01" fy="453.74" xlink:href="#radial-gradient"/>
  </defs>
  <rect class="cls-12" x="4.96" width="1915.04" height="1080"/>
  <g class="cls-26">
    <g class="cls-7">
      <g class="cls-28">
        <rect class="cls-14" x="11.66" y="10.97" width="1920" height="39.75"/>
        <rect class="cls-14" x="11.66" y="120.72" width="1920" height="39.75"/>
        <rect class="cls-14" x="11.66" y="230.47" width="1920" height="39.75"/>
        <rect class="cls-14" x="11.66" y="340.22" width="1920" height="39.75"/>
        <rect class="cls-14" x="11.66" y="449.98" width="1920" height="39.75"/>
        <rect class="cls-14" x="11.66" y="559.73" width="1920" height="39.75"/>
        <rect class="cls-14" x="11.66" y="669.48" width="1920" height="39.75"/>
        <rect class="cls-14" x="11.66" y="779.23" width="1920" height="39.75"/>
        <rect class="cls-14" x="11.66" y="888.98" width="1920" height="39.75"/>
        <rect class="cls-14" x="11.66" y="998.74" width="1920" height="39.75"/>
      </g>
    </g>
  </g>
  <g id="basket">
    <circle class="cls-18" cx="1436.96" cy="918.43" r="22.21"/>
    <circle class="cls-18" cx="1216.4" cy="992.26" r="22.21"/>
    <polygon class="cls-3" points="1123.18 887.12 1409.16 792.61 1366.96 565.36 1030.53 732.82 1123.18 887.12"/>
    <path class="cls-2" d="m1153.28,959.4l289.31-95.61c8.91-2.94,12.23-14.11,6.58-22.08l-40-49.1"/>
    <path class="cls-15" d="m1428.17,916.69h0s.35-.26.35-.26c-.05-1.37.19-2.72.67-3.95l-.19-.21c-.05.1-.09.21-.14.32-.5,1.23-.75,2.59-.71,3.96,0,.04,0,.09,0,.14Z"/>
    <path class="cls-15" d="m1434.84,907.05s.05-.02.07-.02h0s-.07.02-.07.02Z"/>
    <path class="cls-15" d="m1429.01,912.28l.19.21c.25-.63.57-1.23.94-1.79.09-.14.19-.27.29-.41.19-.26.4-.5.61-.74.71-.78,1.55-1.43,2.51-1.94.13-.06.26-.13.39-.19.22-.1.45-.2.68-.28.04-.02.08-.03.12-.05-2.65.88-4.65,2.8-5.72,5.19Z"/>
    <path class="cls-15" d="m1434.84,907.05s.05-.02.07-.02h0s-.07.02-.07.02Z"/>
    <circle class="cls-20" cx="1436.74" cy="917.77" r="15.61"/>
    <path class="cls-24" d="m1428.17,916.69c.03.92.2,1.84.5,2.74,1.7,5.15,7.18,7.98,12.23,6.31s7.76-7.2,6.06-12.35c-1.16-3.52-4.07-5.94-7.4-6.6l-.06-.07-7.54-8.66-7.65-23.14-31.1,7.37,34.96,34.39s0-.09,0-.14c-.04-1.38.22-2.73.71-3.96.04-.11.09-.21.14-.32,1.07-2.39,3.07-4.32,5.72-5.19-.04.01-.08.03-.12.05-.24.09-.46.18-.68.28-.13.06-.27.12-.39.19-.96.51-1.8,1.17-2.51,1.94-.21.24-.42.48-.61.74-.1.14-.2.27-.29.41-.37.56-.68,1.16-.94,1.79-.48,1.23-.72,2.58-.67,3.95l-.35.26h0Zm6.75-9.67s-.05,0-.07.02l.07-.02h0Z"/>
    <circle class="cls-20" cx="1216.18" cy="991.6" r="15.61"/>
    <path class="cls-24" d="m1206.16,990.13c.03.92.2,1.84.5,2.74,1.7,5.15,7.18,7.98,12.23,6.31s7.76-7.2,6.06-12.35c-1.16-3.52-4.07-5.94-7.4-6.6l-.06-.07-7.54-8.66-7.65-23.14-31.1,7.37,34.96,34.39s0-.09,0-.14c-.04-1.38.22-2.73.71-3.96.04-.11.09-.21.14-.32,1.07-2.39,3.07-4.32,5.72-5.19-.04.01-.08.03-.12.05-.24.09-.46.18-.68.28-.13.06-.27.12-.39.19-.96.51-1.8,1.17-2.51,1.94-.21.24-.42.48-.61.74-.1.14-.2.27-.29.41-.37.56-.68,1.16-.94,1.79-.48,1.23-.72,2.58-.67,3.95l-.35.26h0Zm6.75-9.67s-.05,0-.07.02l.07-.02h0Z"/>
    <line class="cls-4" x1="1303.43" y1="604.26" x2="1366.8" y2="796.01"/>
    <line class="cls-4" x1="1251.14" y1="627.39" x2="1314.51" y2="819.14"/>
    <line class="cls-4" x1="1198.63" y1="649.85" x2="1262" y2="841.61"/>
    <line class="cls-4" x1="1146.33" y1="677.37" x2="1206.43" y2="859.24"/>
    <line class="cls-4" x1="1092.72" y1="703.13" x2="1149.77" y2="875.77"/>
    <line class="cls-4" x1="1378.16" y1="644.61" x2="1064.86" y2="780.31"/>
    <line class="cls-4" x1="1393.8" y1="709.61" x2="1088.03" y2="829.96"/>
    <line class="cls-6" x1="1355" y1="523.63" x2="1360.15" y2="565.78"/>
    <line class="cls-6" x1="1410.19" y1="482.73" x2="1351.91" y2="529.77"/>
    <line class="cls-5" x1="1469.58" y1="430.22" x2="1411.51" y2="480.1"/>
    <ellipse class="cls-9" cx="1334.76" cy="1000.16" rx="149.56" ry="7.87" transform="translate(-246.41 469.32) rotate(-18.29)"/>
  </g>
  <g id="Character">
    <path class="cls-21" d="m897.6,333.5h153.79c37.89,0,68.65,30.76,68.65,68.65v295.99h-291.08v-295.99c0-37.89,30.76-68.65,68.65-68.65Z"/>
    <circle class="cls-13" cx="976.84" cy="459.48" r="119.72"/>
    <path class="cls-17" d="m907.86,587.81h130.14c13.75,0,24.92,11.16,24.92,24.92v37.68h-179.97v-37.68c0-13.75,11.16-24.92,24.92-24.92Z"/>
    <rect class="cls-19" x="808.7" y="997.61" width="329.61" height="81.39"/>
    <ellipse class="cls-10" cx="952.2" cy="453.19" rx="25.43" ry="25.85"/>
    <circle class="cls-29" cx="952.15" cy="453.84" r="12.81"/>
    <circle class="cls-23" cx="951.93" cy="454.06" r="5.3"/>
    <path class="cls-1" d="m948.07,621.2c0,.56.46,1.02,1.02,1.02"/>
    <path class="cls-1" d="m949.09,622.22c0-31.49-3.64-56.97-8.14-56.97"/>
    <polygon class="cls-13" points="928.74 635.44 928.74 563.21 1019.68 563.21 1018 634.95 928.74 635.44"/>
    <path class="cls-16" d="m987.08,643.09c6.62.5,12.8-1.31,18.86-3.84,5.81-2.42,11.67-4.92,16.79-8.62,6.2-4.48.22-14.9-6.06-10.36-7.96,5.75-19.59,11.56-29.59,10.81-7.7-.58-7.67,11.43,0,12h0Z"/>
    <g class="cls-27">
      <path class="cls-22" d="m1071.09,763.23c.58,32.3,1.16,64.62.31,96.92-.42,16.07-1.31,32.1-2.44,48.14-1.15,16.18-1.94,32.31-1.27,48.53.74,17.94,2.73,35.8,4.72,53.64.21,1.9,3.21,1.92,3,0-1.79-16.04-3.58-32.1-4.46-48.22-.88-16.03-.49-31.99.59-48.01,1.09-16.04,2.18-32.06,2.69-48.13.51-16.23.65-32.46.58-48.7-.08-18.06-.4-36.12-.72-54.18-.03-1.93-3.03-1.93-3,0h0Z"/>
    </g>
    <path class="cls-17" d="m873.81,612.85h199.8c35.56,0,64.42,28.87,64.42,64.42v320.56h-328.64v-320.56c0-35.56,28.87-64.42,64.42-64.42Z"/>
    <path class="cls-11" d="m1028.49,504.86c0,21.18-21.72,38.34-48.51,38.34s-48.51-17.17-48.51-38.34"/>
    <ellipse class="cls-10" cx="1019.06" cy="453.1" rx="25.43" ry="25.85"/>
    <circle class="cls-25" cx="1019.01" cy="453.74" r="12.81"/>
    <circle class="cls-23" cx="1019.06" cy="454.66" r="5.3"/>
    <circle class="cls-13" cx="860.25" cy="457.13" r="15.65"/>
    <circle class="cls-13" cx="1091.87" cy="460.26" r="15.65"/>
    <ellipse class="cls-21" cx="890.77" cy="403.14" rx="30.52" ry="24.26"/>
    <ellipse class="cls-21" cx="940.85" cy="398.45" rx="30.52" ry="24.26"/>
    <ellipse class="cls-21" cx="986.23" cy="390.62" rx="30.52" ry="24.26"/>
    <ellipse class="cls-21" cx="1028.49" cy="398.45" rx="30.52" ry="24.26"/>
    <ellipse class="cls-21" cx="1077" cy="403.14" rx="30.52" ry="24.26"/>
    <path class="cls-8" d="m921.6,269.34h132.39c42.5,0,77,34.5,77,77v63.85h-286.39v-63.85c0-42.5,34.5-77,77-77Z"/>
    <path class="cls-8" d="m777.45,358.54h123.5v51.64h-156.5v-18.64c0-18.21,14.79-33,33-33Z"/>
  </g>
</svg>