<?xml version="1.0" encoding="UTF-8"?>
<svg xmlns="http://www.w3.org/2000/svg" xmlns:xlink="http://www.w3.org/1999/xlink" viewBox="0 0 595.28 841.89">
  <defs>
    <style>
      .cls-1 {
        fill: #e3d4d9;
        opacity: .11;
      }

      .cls-2 {
        opacity: .09;
      }

      .cls-2, .cls-3 {
        fill: #fff;
      }

      .cls-4, .cls-3 {
        opacity: .05;
      }

      .cls-5 {
        fill: #005dac;
      }

      .cls-6 {
        fill: #676f72;
      }

      .cls-7 {
        fill: #e9eaec;
      }

      .cls-8 {
        fill: #eac891;
      }

      .cls-9 {
        fill: #e9974e;
      }

      .cls-10 {
        fill: #e7dfe2;
      }

      .cls-11 {
        fill: #e4bf85;
      }

      .cls-12 {
        fill: #e5c491;
      }

      .cls-13 {
        fill: #e5c085;
      }

      .cls-14 {
        fill: #817262;
      }

      .cls-15 {
        fill: #826e5b;
      }

      .cls-16 {
        fill: #994d46;
      }

      .cls-17 {
        fill: #b5dec5;
      }

      .cls-18 {
        fill: #c1ddf1;
      }

      .cls-19 {
        fill: #ceb3a1;
      }

      .cls-20 {
        fill: #d2e1da;
      }

      .cls-21 {
        fill: #a76959;
      }

      .cls-22, .cls-23 {
        fill: #d2a6a8;
      }

      .cls-24 {
        fill: #e2c89d;
      }

      .cls-25 {
        fill: #d6bcaa;
      }

      .cls-26 {
        fill: #d6bbaa;
      }

      .cls-27 {
        fill: #dcb495;
      }

      .cls-28 {
        fill: #dcbda2;
      }

      .cls-29 {
        fill: #dcbca1;
      }

      .cls-30 {
        fill: #dbc4b6;
      }

      .cls-31 {
        fill: #dbc5b7;
      }

      .cls-32 {
        fill: #25455f;
      }

      .cls-33 {
        fill: #231f20;
      }

      .cls-34 {
        fill: #424a4a;
      }

      .cls-35 {
        fill: #373e3e;
      }

      .cls-36 {
        fill: #3f3c3c;
      }

      .cls-37 {
        fill: #6e7579;
      }

      .cls-38 {
        fill: #26465f;
      }

      .cls-39 {
        fill: #504e73;
      }

      .cls-40 {
        opacity: .1;
      }

      .cls-40, .cls-3 {
        stroke: #231f20;
      }

      .cls-40, .cls-3, .cls-41, .cls-42 {
        stroke-miterlimit: 10;
      }

      .cls-40, .cls-41, .cls-42 {
        fill: none;
      }

      .cls-43 {
        fill: #c8818c;
        opacity: .15;
      }

      .cls-44 {
        fill: #bb7574;
        opacity: .21;
      }

      .cls-41 {
        stroke: #676f72;
      }

      .cls-42 {
        stroke: #6e7579;
      }

      .cls-45 {
        fill: url(#radial-gradient);
      }

      .cls-23 {
        opacity: .61;
      }

      .cls-46 {
        fill: #d49ca1;
        opacity: .27;
      }
    </style>
    <radialGradient id="radial-gradient" cx="387.24" cy="486.55" fx="387.24" fy="486.55" r="12.66" gradientUnits="userSpaceOnUse">
      <stop offset="0" stop-color="#d7913b"/>
      <stop offset="1" stop-color="#fff"/>
    </radialGradient>
  </defs>
  <g id="Layer_1" data-name="Layer 1">
    <rect class="cls-20" x=".37" y=".53" width="594.54" height="841.36"/>
    <g id="Alle">
      <g id="Mor">
        <path class="cls-29" d="m197.56,316.46l-.4,11.45c-.16,4.51-2.3,8.64-5.71,10.97l-5.71,3.91c-2.92,2-4.84,5.43-5.2,9.27l-1.31,13.95c-.24,2.51.91,4.93,2.89,6.08l17.58,10.28c.81.47,1.66.83,2.55,1.07l18.34,4.94c.88.24,1.78.36,2.68.37l17.33.21c1.17.01,2.33-.15,3.46-.48l15.99-4.74c1.47-.43,2.87-1.12,4.15-2.04l7.75-5.51c3.37-2.39,5.55-6.44,5.9-10.94h0c.26-3.35-1.03-6.62-3.41-8.63l-2.8-2.37c-.91-.77-1.91-1.4-2.97-1.86l-6.59-2.87c-2.23-.97-4.26-2.47-5.95-4.39l-.55-.63c-1.96-2.23-5.39-4.95-5.55-8.1l-1.59-14.79"/>
        <path class="cls-34" d="m185.07,343.29l-32.13,8.11c-.49.12-.98.26-1.45.43l-10.77,3.74c-7.28,2.53-13.44,7.52-17.42,14.12l-7.06,11.73c-1.7,2.82-2.96,5.88-3.74,9.08l-5.77,23.65c-.3,1.24-.54,2.49-.7,3.76l-2.77,21.33c-.12.96-.29,1.92-.49,2.86l-20.42,96.74-1.97,17.51.25-.5c-1.82-.54-2.41,15.49,5.58,11.5l62.4,34.08,8.36,126.5,17.5,62.92-1.47,50.81,130.24.24-3.3-217.57,29.84,27.69,10.27-69.21-2.8-68.1-12.13-70.43-5.15-61.46c-.56-6.68-4.74-12.51-10.89-15.18l-37.99-13.86-7.16,16.3c-2.52,5.74-8.05,9.58-14.31,9.93l-26.79,1.51c-2.98.17-5.96-.32-8.73-1.43l-21.88-8.75c-4.58-1.83-7.54-6.31-7.42-11.24l.26-16.79Z"/>
        <path class="cls-29" d="m189.61,291.95l-3.88-5.63c-.41-.6-1.11-.94-1.84-.89h0c-1.05.07-4.94.48-5.43.97l-.15.54c-.47,1.68.14,3.48,1.55,4.52.86.63,2.23,2.11,2.23,2.11l2.44,2.36c.17.31.42.56.73.74l.78.47c1.12.68,2.58.16,3.01-1.08l.8-2.26c.22-.62.13-1.31-.25-1.86Z"/>
        <path class="cls-29" d="m262.73,289.85l-5.52,4.03c-.59.43-.91,1.14-.84,1.86h0c.1,1.05.62,4.92,1.12,5.4l.54.14c1.69.43,3.48-.24,4.48-1.67.61-.88,2.05-2.29,2.05-2.29l2.29-2.5c.3-.18.55-.44.72-.75l.45-.79c.65-1.14.08-2.58-1.16-2.98l-2.28-.74c-.63-.2-1.32-.09-1.85.3Z"/>
        <path class="cls-27" d="m185.47,282.83c-7.18-27.52,14.58-50.36,37.5-50.36s35.57,21.93,36.5,50.36c1.13,34.47-11.48,48.75-36.5,51.64-24.17,2.8-30.97-26.64-37.5-51.64Z"/>
        <path class="cls-42" d="m191.55,285.18c-2.5-4.92,6.49-9.75,14.5-9.75s16.26,3.29,14,10c-1.79,5.3-5.31,8.6-14,10-8.01,0-11.79-4.91-14.5-10.25Z"/>
        <path class="cls-42" d="m226.8,283.82c-2.5-4.92,6.49-9.75,14.5-9.75s15.51,3.29,13.25,10c-1.79,5.3-4.56,8.6-13.25,10-8.01,0-11.79-4.91-14.5-10.25Z"/>
        <line class="cls-42" x1="179.2" y1="278.96" x2="190.98" y2="282.45"/>
        <line class="cls-42" x1="261.15" y1="277.78" x2="254.77" y2="281.45"/>
        <path class="cls-37" d="m226.9,279.96c-.2-.19-.44-.33-.69-.43-.3-.12-.58-.27-.91-.33-.68-.12-1.34.06-2.02.1s-1.26.2-1.87.43c-.33.12-.63.28-.9.5-.24.2-.36.43-.56.66-.38.44.35.75.68.41l.02-.03c.15-.16.26-.41.07-.58-.18-.16-.51-.08-.67.08l-.02.03.68.41c.16-.18.22-.36.43-.51.18-.13.39-.21.59-.27.27-.09.55-.19.82-.26.24-.06.48-.05.72-.07.53-.04,1.09-.2,1.62-.11.24.04.44.15.66.25.23.1.42.17.61.35.34.34,1.12-.28.73-.66h0Z"/>
        <path class="cls-15" d="m230.93,237.38l10.14,3.12c1.05.32,1.89,1.13,2.26,2.16l6.48,18.16c.04.11.08.21.13.31l5.6,11.94c1.14,2.44,1.88,5.05,2.17,7.73l1.62,14.92c.02.2.03.41.01.61h0c-.2,3.05,3.34,4.87,5.7,2.92l3.91-3.23c.66-.54,1.09-1.31,1.23-2.15l1.79-11.31c.35-2.19.39-4.42.12-6.63l-1.81-15.06c-.29-2.44-.97-4.81-2.01-7.04l-7.49-16.04c-1.13-2.42-2.59-4.67-4.33-6.69l-10.4-12.03c-.25-.28-.54-.53-.86-.72l-4.32-2.92c-1.3-.88-2.72-1.58-4.22-2.07-.33-.11-.66-.22-.98-.32-1.43-.46-2.97-.34-4.31.32-1.67.83-3.89,1.93-4.68,2.27h-.02c-.9.4-1.94.31-2.76-.22l-1.88-1.21c-.79-.51-1.71-.76-2.65-.72h0s-6.49,1.17-6.49,1.17c-3.32.6-6.47,1.94-9.2,3.92l-10.53,7.64c-1.75,1.27-3.38,2.7-4.87,4.27l-6.1,6.44c-2.7,2.85-4.73,6.27-5.94,10l-3.01,9.28c-1.13,3.5-1.54,7.19-1.18,10.84l.93,9.63c.05.49.11.99.2,1.47l.67,3.77c.47,2.67,1.96,5.06,4.14,6.66l5.05,3.71c.32.23.67.41,1.05.52l.24.07c2.15.66,4.36-.87,4.5-3.11l1-15.48c.17-2.64.87-5.22,2.05-7.59l3.1-6.19,6.18-12.12c.53-1.04,1.16-2.03,1.88-2.95l3.66-4.66c.54-.69,1.33-1.15,2.19-1.29l5.29-.85c.22-.04.45-.05.68-.04l6.88.25c.31.01.62-.02.92-.09l6.45-1.5c.6-.14,1.23-.12,1.82.06Z"/>
        <path class="cls-43" d="m209.91,309.57l7.1,5.34c.72.54,1.58.88,2.47.96l5.52.54c1.25.12,2.5-.08,3.64-.6l5.62-2.55c.36-.16.69-.39.97-.68l2.7-2.74c.22-.23.43-.48.6-.75l1.65-2.57c.11-.17-.02-.39-.22-.38l-9.31.32c-.73.02-1.45.18-2.13.47l-2.53,1.07c-.21.09-.43.13-.66.11l-7.12-.42c-.56-.03-1.13,0-1.68.1l-6.49,1.17c-.29.05-.37.42-.14.59Z"/>
        <path class="cls-1" d="m211.88,310.18l7.29,2.87c.27.1.55.17.83.18l5.88.33c.34.02.67-.02,1-.11l4.44-1.29c.27-.08.53-.19.77-.33l3.91-2.3c.28-.16.51-.39.68-.66l1.02-1.6c.07-.11-.03-.25-.15-.21l-5.89,1.52-4.48,1.55c-.61.21-1.25.31-1.9.29l-4.75-.15c-.17,0-.33-.02-.5-.04l-3.3-.49c-.55-.08-1.1-.1-1.65-.05l-3.16.27c-.13.01-.15.19-.03.23Z"/>
        <path class="cls-14" d="m226.46,223.41c-1.01,3.18-3.51,5.78-4.18,9.11-.17.83-.16,1.71.13,2.51.07.27.67,1.19.35.51-.56-1.63.23-3.34.98-4.77,1.04-2.37,2.53-4.73,2.71-7.36Z"/>
        <path class="cls-14" d="m188.05,244.58c-1.1,2.05-1.59,4.33-2.44,6.48-1.11,2.34-1.61,4.89-2.58,7.28-1.64,2.8.82-.32,1.43-1.3,1.14-2.08,2.43-4.08,3.54-6.17,1.11-2.51,1.36-3.63,2.73-6.18,2.51-4.26,5.68-8.09,8.37-12.23-3.9,3.79-8.31,7.35-11.04,12.11Z"/>
        <path class="cls-14" d="m253.84,246.19c-5.63-8.08-3.44-20.33-17.49-15.7,3.12-.3,7.38-.49,9.41,2.35,2.22,4.01,3.09,8.78,6.01,12.44,1.3,1.79,3.4,3.29,5.12,4.32-1.05-1.1-2.17-2.15-3.05-3.4Z"/>
        <path class="cls-14" d="m266.35,283.04c-1.47-7.38-4.54-14.1-7.32-20.71,1,6.41,2.81,12.66,4.89,18.79.82,3.24,3.79,5.87.46,8.77,3-1.41,2.98-4.09,1.96-6.85Z"/>
      </g>
      <path class="cls-25" d="m294.03,431.8h0c-.22.42-.39.86-.49,1.32l-.76,3.28c-.24,1.04.06,2.12.8,2.89l.22.23c.36.37.37.96.03,1.35h0c-.81.91-1.22,2.12-1.14,3.34v.11c.05.67.23,1.31.52,1.91h0c.43.86,1.05,1.61,1.82,2.18l.46.34c.52.38.85.98.89,1.62h0c.09,1.27.72,2.44,1.74,3.21l1.68,1.26.99.36c1.27.46,2.66-.26,3.03-1.55h0c.18-.65-.12-1.34-.72-1.64l-.81-.76c-.19-.18-.19-.48,0-.66l1.17-1.13,4.43-.37c1.06-.09,2.03-.64,2.64-1.52l2.61-3.74c1.19-1.7,1.98-3.65,2.32-5.69l.46-2.78c.15-.9.16-1.81.05-2.72v-.04c-.22-1.66-1.07-3.16-2.37-4.21h0c-.92-.74-2.04-1.2-3.22-1.33l-2.94-.31-3.83-.26c-3.96-.27-7.71,1.81-9.57,5.32Z"/>
      <path class="cls-19" d="m301.87,431.4c-.16,1.08-.62,2.76-1.6,2.96,1.41-.11,1.65-1.83,1.6-2.96Z"/>
      <path class="cls-19" d="m303.42,440.63c-.83-.72-2.01-.88-3.03-1.22.87.57,1.93.88,2.68,1.62.67.77,1.19,2.02.28,2.81-.14.12-.29.22-.46.29.19-.02.38-.08.55-.17,1.31-.73.89-2.44-.02-3.32Z"/>
      <path class="cls-19" d="m302.01,446.79c-.32-.21-.72-.2-1.08-.29-.84-.33-1.57-.93-2.33-1.41.84.87,1.7,1.88,2.96,2.06.95.45,1.38,1.9.85,2.8-.2.36.18-.16.29-.28.52-.91.17-2.28-.69-2.88Z"/>
      <path class="cls-19" d="m296.6,449.5c.72.44,1.53.72,2.37.85-.7-.33-1.74-.73-2.37-.85Z"/>
      <path class="cls-19" d="m313.24,434c-.14.24-.28.48-.46.69-.39.36-1.03.38-1.54.49-.46,0-.87-.22-1.32-.29-1.29-.11-2.06-1.17-2.63-2.23.26,1.04.69,2.15,1.73,2.61.72.26,1.52.52,2.29.47.54-.15,1.14-.35,1.56-.73.19-.17.5-1.2.36-1.02Z"/>
      <path class="cls-19" d="m310.21,438.15c-.59-.08-1.08-.43-1.63-.6-1.26-.24-2.07-1.32-3.08-2.02.88,1.24,1.79,2.52,3.38,2.79.88.51,2.51.1,3.1.15-.56-.27-1.17-.26-1.78-.32Z"/>
      <path class="cls-19" d="m300.65,438.95c-.36-.6-1.13-.69-1.69-1.04-.37-.21-.74-.43-1.1-.66.47-.17.97-.46,1.24-.89.19-.47.04-.98-.05-1.46-.02.43.02.89-.19,1.28-.25.3-.67.44-1.04.55-.29.07-.58.01-.87-.07-.6-.39-1.2-.78-1.81-1.16-.15-.24-.33-.47-.52-.69.07.15.12.31.18.47-.07-.04-.14-.09-.22-.14.09.1.18.19.27.29.05.14.09.28.15.42.27.51.61,1.02,1.2,1.18.2.06.4.12.6.18.61.45,1.26.84,1.98,1.09.6.26,1.36.18,1.86.63Z"/>
      <path class="cls-19" d="m298.27,450.54c1.21.34,2.5.23,3.71-.11-1.2-.09-2.63-.01-3.71.11Z"/>
      <path class="cls-19" d="m309.32,431.46c.36-.28.68-.63,1.13-.77.69-.19,1.41.09,2.1.2-1.4-.81-2.51-.84-3.23.57Z"/>
      <path class="cls-7" d="m427.09,294.83l9.75,17.31c.89,1.28,7.61-.75,8.95-1.63l37.45-26.19c.42-.28,2.94,7.12,2.66,7.53l-15.14,27.5-21.75,37.03-27.1,47.03c-.16.33,1.24,3.09,1.24,2.73l-2.18-55.56c0-.5.01-1.01.04-1.51l2.11-36.2c.06-1.02-.29-4.23-.06-5.22l4.01-12.82Z"/>
      <path class="cls-35" d="m485.93,285.29l-60.54,107.68,1.07-96.12-75.01,30.04,1.69,197.59c.06,7.09-.43,14.17-1.47,21.19l-7.37,49.83-1.54,49.03,4.06,63.92,4.57,132.92,71.53.51,5.58-81.17,18.29,81.19,85.69-.47-.99-74.63-1.96-70.7c-.04-1.57-.03-3.14.04-4.7l2.23-47.78c.12-2.6,1.5-4.99,3.69-6.4l7.43-4.78c2-1.28,3.06-3.61,2.73-5.96l-8.59-61.08-7.36-77.74c-.5-5.29-.03-10.63,1.38-15.75l22.65-53.34c2.62-6.16,3.9-12.81,3.76-19.5l-.48-22.96c-.06-2.82.45-5.62,1.51-8.23h0c3.16-7.84,2.88-16.65-.77-24.27l-3.53-7.38c-4.62-9.65-12.22-17.56-21.68-22.56-2.98-1.58-23.77-11.98-25-12.86l-21.61-15.51Z"/>
      <path class="cls-29" d="m426.46,276.5l.93,18.23c.22,3.51,1.39,6.89,3.39,9.77l7.59,10.92c1.12,1.61,3.29,2.05,4.94,1l33.85-21.7c1.59-1.02,3.03-2.27,4.27-3.71l2.14-2.49c2.04-2.04,2.61-2.46,3.11-7.61l1.73-25.67,1.15-18.17,4.78-7.47,4.45-.94"/>
      <path class="cls-5" d="m416.45,326.51l10.08,12.15c1.47,1.77,4.05,2.13,5.94.82l3.54-2.44c.64-.44,1.23-.95,1.77-1.51l4.28-4.51c.9-.95,2.1-1.55,3.4-1.7l2.45-.28,1.87-.47c1.67-.42,3.44-.25,5,.49l5,2.74,10.12-17.88-2.04-2.32c-.71-.8-1.53-1.5-2.45-2.06l-.6-.37c-1.62-.99-3.68-.89-5.19.26l-7.68,5.84-3.18,1.88c-1.88,1.11-4,1.76-6.19,1.9l-4.63.3-9.23-.61-2.69-.2c-2.64-.2-5.25.61-7.32,2.26l-1.81,1.44c-1.32,1.05-1.52,2.98-.44,4.27Z"/>
      <path class="cls-27" d="m425.43,276.31c-13.76-20.01-6.75-88.25-6.75-88.25h76.59s.4,50.92-7.09,65.63c-11.71,23.01-13.28,26.88-30.99,29.5,0,0-25.81,1.78-31.76-6.88Z"/>
      <ellipse class="cls-41" cx="431.56" cy="227.49" rx="12.88" ry="9.75"/>
      <ellipse class="cls-41" cx="466.56" cy="228.76" rx="12.88" ry="9.75"/>
      <path class="cls-6" d="m454.39,224.85c-.41-.11-.81-.21-1.22-.32-.43-.11-.84-.3-1.28-.38-.88-.15-1.8-.05-2.69-.05s-1.77-.01-2.67.12c-.45.07-.91.02-1.35.15-.37.11-.69.31-1.01.53s-.41.8.13.74h.04c.52-.06.76-.9.11-.82h-.04c.04.25.09.5.13.74.31-.22.59-.41.97-.45.41-.05.8-.05,1.21-.13.76-.15,1.59-.06,2.36-.06s1.65-.09,2.45.04c.42.07.8.25,1.21.36.36.09.72.18,1.08.29.24.07.51-.01.66-.22.11-.16.14-.47-.1-.54h0Z"/>
      <line class="cls-41" x1="491.51" y1="226.49" x2="479.43" y2="228.76"/>
      <path class="cls-46" d="m435.82,256.77l4.49-1.86c.47-.09,4.96.13,5.44.16l4.9.32c.77.05,1.53.24,2.23.57l3.75,1.56c.41.19,2.74,2.01,2.36,2.25l-3.58,2.98c-.96.6-4.06,1.41-5.19,1.39l-5.33-.07c-1.46-.02-4.71-1.69-5.15-1.88-4.8-1.99-4.06-4.96-4.06-4.96-.16-.15-.08-.42.14-.46Z"/>
      <path class="cls-19" d="m340.48,411.77c-.14.13-.48.29-.46.5,0,.02.02.04.03.06.16-.39.83-.39,1.21-.5,1.63-.17,3.25-.46,4.8-1.02-2,.07-3.81-.03-5.58.96Z"/>
      <path class="cls-29" d="m497.18,229.54l2.84-.69c2.01-.49,3.88,1.16,3.44,3.05l-1.99,8.63c-.15.63-.34,1.25-.59,1.86l-3.91,9.65c-1.17,2.9-3.71,5.13-6.89,6.06l-4.16,1.22,4.17-23.02c.62-2.77,4.13-6.04,7.08-6.76Z"/>
      <path class="cls-29" d="m418.47,252.63l-1.09-4.13-2.29-8.66c-.09-.33-.16-.67-.21-1.02l-1.17-7.52c-.13-.85-.19-1.7-.17-2.56l.06-2.45c.03-1.05.91-1.86,1.96-1.81l1.41.08c.23.01.43.19.46.42l.91,6.83,1.15,9.21"/>
      <path class="cls-36" d="m415.77,225.36h0c-.35-.3-.57-.74-.59-1.21-.25-4.49-.83-13.48-1.02-17.97-.07-1.72-.15-4.68-.21-7.08-.05-1.99.55-3.93,1.71-5.54,1.31-1.82,2.9-3.95,3.99-5.52.52-.75,1.51-1.85,2.2-2.45,1.83-1.59,4.68-4.49,6.34-5.8,1.74-1.37,5.25-3.54,7.55-4.98.82-.51,1.71-.89,2.65-1.12l8.56-2.12c.43-.11.86-.18,1.3-.22l12.5-1.24c.82-.08,1.64-.05,2.45.09l7.33,1.26c.54.09,1.06.23,1.58.42l7.84,2.85c.15.06.31.12.46.18l6.27,2.67c.98.41,1.87.99,2.65,1.72l3.55,3.29c.31.29.61.6.88.93l6.23,7.63c.43.52.8,1.09,1.1,1.7l3.58,7.14c.5.99.81,2.06.93,3.17l.68,6.29c.06.56.07,1.12.03,1.67l-.56,7.64c-.02.32-.06.64-.12.95l-.7,3.92c-.05.29-.12.59-.2.87l-1.41,5.03c-.16.57-.6,1.02-1.15,1.18l-2.69.77c-1.73.49-3.27,1.48-4.45,2.85l-1.9,2.21c-.19.22-.43.39-.7.48l-.41.15c-1.19.43-2.4-.61-2.19-1.89l1.01-6.37c.18-1.1.15-2.22-.07-3.31l-.81-3.97c-.27-1.35-.84-2.61-1.67-3.71l-.2-.26c-.98-1.31-1.6-2.85-1.79-4.47l-.51-4.29c-.04-.36-.06-.73-.06-1.09v-2.42c0-1.79-.52-3.54-1.49-5.04h0c-1.27-1.96-3.23-3.36-5.5-3.93l-1.22-.3c-.62-.15-1.63-.27-2.27-.26-1.78.02-4.22.18-5.57.13-.26,0-1.76.03-2.01.11-1.23.4-3.51.85-5.18,1.27-1.19.29-2.42.34-3.63.14l-2.91-.47c-.36-.06-.72-.14-1.08-.24-1.76-.51-4.71-1.34-6.24-1.81-1.39-.42-3.88-1.24-5.7-1.83-.94-.31-1.93-.46-2.92-.44l-3.51.04c-.49,0-.98.05-1.46.14l-1.51.26c-2.23.39-4.23,1.58-5.63,3.36-.99,1.26-2.07,2.65-2.97,3.79s-1.51,2.42-1.83,3.81c-.74,3.2-1.83,7.11-2.56,9.76-.02.06-.22.74-.26.88,0,.02,0,.02-.01.04-.08.41-1.39,7.24-1.8,9.57-.23,1.31-1.72,1.89-2.71,1.04Z"/>
      <g id="Simi">
        <path class="cls-34" d="m71.02,556.65h3.43c11.08,0,20.07,8.99,20.07,20.07v10.92h-23.5v-30.99h0Z"/>
        <path class="cls-31" d="m86.25,531.87l-5.94-11.87c-.09-.17-.16-.35-.23-.53l-2.5-6.65c-.27-.71-.47-1.89-.53-3.13-.1-1.93.48-3.83,1.56-5.43l1.11-1.64,6.23.88.31,28.39Z"/>
        <path class="cls-31" d="m152.53,536.21h0c1.5-.04,2.94-.61,4.07-1.61l1.87-1.65c.97-.85,1.81-1.85,2.48-2.95l1.62-2.65c.18-.29.34-.59.49-.89l2.55-5.14c.6-1.22,1.01-2.53,1.19-3.87l.31-2.28c.2-1.42.02-2.87-.51-4.2l-.11-.28c-.17-.43-.45-.8-.82-1.08h0c-.89-.68-2.12-.68-3.02,0l-7.24,5.44c-.45.34-.77.81-.91,1.35l-4.49,16.64c-.44,1.62.81,3.21,2.5,3.16Z"/>
        <path class="cls-30" d="m99.48,558.51l-7.77,8.68c-2.89,3.23-4.42,7.44-4.27,11.77l.36,10.34c.07,2.14.95,4.18,2.45,5.71h0c3.6,3.66,8.86,5.16,13.84,3.95l9.51-2.31c1.99-.48,3.91-1.24,5.69-2.26l9.49-5.39c2.41-1.37,4.49-3.26,6.09-5.52l7.58-10.77c2.3-3.27,3.38-7.24,3.04-11.23l-.34-3.97v-14.68"/>
        <path class="cls-26" d="m83.82,515.62c2.14-26.73,11.99-50,33.25-50s36.75,20.69,36.75,47.75-15.49,50.25-36.75,50.25-35.59-18.76-33.25-48Z"/>
        <path class="cls-40" d="m111.26,531.27c-.91-1.51-2.85-2.3-4.56-1.87"/>
        <path class="cls-40" d="m118.93,530.53c-1.56-.82-3.63-.51-4.87.74"/>
        <path class="cls-23" d="m100.08,539.53l8.13-.15c.15,0,.31,0,.46.02l9.56.82,5.46,1.4c.3.05.38.44.12.6l-5.32,3.33c-.86.54-1.86.8-2.87.75l-6.17-.31c-.89-.05-1.75-.32-2.49-.81l-7.17-4.64c-.45-.29-.25-.98.28-.99Z"/>
        <path class="cls-13" d="m117.58,473.67l-15.56,5.74c-4.64,1.71-8.15,5.59-9.41,10.37l-.71,2.72c-.46,1.74-.53,3.57-.23,5.34l2.41,13.97c.08.49-.52.78-.85.41l-5.62-6.25c-1.7-1.89-2.29.58-2.29,3.12l-2.55,5.51c0,.31-1,2.03-1.14,1.75l-2.68-7.26c-1.13-2.31-2.47-4.94-4.44-6.59l-3.96-3.33c-3.15-2.64-4.07-7.09-2.25-10.77l9.56-19.24c1.15-2.32,2.72-4.42,4.62-6.18l5.07-7.97c2.55-4.01,6.37-9.54,10.85-11.12l8.29-2.13c1.68-.59,4.12,1.21,5.52,2.31h0c2.52,1.97,5.93,2.47,8.88,1.22,1.74-.74,3.61-1.32,4.81-1.12,1.64.27,8.32-1.49,13.18-.91,3.96.47,9.09,2.97,12.29,5.54.25.2.46.46.63.74h0c2.27,3.89,5.24,7.34,8.76,10.16l2.51,2.01c3.92,3.14,6.13,7.94,5.97,12.96l-.1,3.17h0c-1.97,3.84-1.88,8.42.26,12.17l1.04,1.83c1.15,2.01,1.75,4.29,1.75,6.6v1.48c0,1.75-.32,3.49-.95,5.12h0c-.97,2.51-2.86,4.56-5.29,5.73h0c-3.05,1.47-5.63,3.75-7.46,6.59,0,0-1.75,5.29-3.18,4.94-4.56-1.11-4.79-18.67-4.79-18.67-.66-6.89-.84-13.3-5.93-18l-4.05-3.74-13.01-8.01-9.96-.23Z"/>
        <path class="cls-26" d="m35.35,763.68l.72,9.94c.06.81.2,1.62.41,2.41l3.29,12.03c.13.48.03.99-.26,1.39h0c-.79,1.07-2.26,1.35-3.39.66l-2.96-1.82c-1.31-.8-2.31-2.03-2.83-3.48l-2.14-5.92c-.2-.54-.67-.94-1.24-1.04h0c-.92-.16-1.78.48-1.89,1.4l-.81,6.72s0,.08,0,.12l-.2,4.23c-.05,1.1.17,2.19.65,3.18l.99,2.05c.57,1.19,1.55,2.14,2.76,2.67l3.95,1.75c.92.41,1.47,1.36,1.36,2.35h0c-.17,1.56-1.31,2.84-2.85,3.18l-1.63.36-3.18.56c-.36.06-.72.1-1.09.11l-3.09.1c-1.52.05-3.02-.32-4.35-1.07l-3.58-2.03c-.42-.24-.83-.52-1.2-.83l-2.47-2.04c-.83-.68-1.5-1.53-1.97-2.49l-1.53-3.11c-.6-1.22-.93-2.57-.94-3.93l-.03-2.05c-.02-1.63.39-3.24,1.2-4.65l.94-1.65c.59-1.04.93-2.21.99-3.41l.59-11.78c.04-.76.6-1.39,1.34-1.52l22.57-3.86c.94-.16,1.82.53,1.89,1.48Z"/>
        <path class="cls-39" d="m67.76,726.02s22.11,7.26,29.77,8.22c4.56.57,15.55.1,21.83-.24,3.01-.16,5.98-.68,8.87-1.55l25.33-7.57c2.49-.74,4.9-1.73,7.2-2.96l8.99-4.79,6.1,38.73c.36,2.31.53,4.65.49,6.99l-.54,35.33.11,43.46H60.25l3.62-44.08c.09-1.43.27-2.84.53-4.25l4.02-21.45c.21-1.12.48-2.23.81-3.32l1.19-3.92c1.49-4.91,1.84-10.09,1.04-15.15l-3.71-23.46Z"/>
        <path class="cls-26" d="m212.41,806.99l-.02.63c-.05,1.89-.79,3.71-2.08,5.1l-3.59,3.88c-.15.16-.32.31-.51.43l-3.65,2.35c-1.29.83-2.76,1.32-4.29,1.42l-.62.04c-.41.03-.8.15-1.16.35l-2.26,1.3c-1.17.67-2.47,1.1-3.81,1.24l-2,.21c-.65.07-1.25.38-1.69.86l-1.2,1.33c-.65.72-1.65,1.03-2.6.8l-1.89-.45c-1.43-.34-2.49-1.55-2.64-3.01l-.26-2.5c-.11-1.05-.83-1.93-1.83-2.26h0c-.63-.21-1.17-.64-1.5-1.22l-.97-1.71c-.1-.17-.21-.33-.34-.47l-2.45-2.7c-.66-.73-.87-1.77-.53-2.7l3.28-9.08c.08-.23.2-.45.35-.66l3.43-4.74,32.88,8.91c1.19.32,2,1.42,1.97,2.65Z"/>
        <path class="cls-19" d="m75.41,604.43c-1.83-.89-3.68-1.78-5.4-2.88-.93-.62-2.35-2.06-3.82-2.95-2.51-1.98-5.54-3.24-7.8-5.54,1.39,2.79,3.97,4.62,6.13,6.77,1.89,1.42,2.23,1.97,4.59,3.25,1.55.65,3.24,1.15,4.93,1.23.28.07,1.75.28,1.36.12Z"/>
        <path class="cls-19" d="m71.44,610.52c-1.13-1.06-2.67-1.51-3.96-2.33-1.73-1.04-3.32-2.3-5.07-3.3-3.12-1.48-5.85-2.33-8.49-5.02,1.54,3.56,4.86,5.67,8.11,7.49,2.12,1.34,4.46,2.49,6.98,2.76.86.15,1.77.17,2.57.57-.05-.06-.09-.12-.15-.17Z"/>
        <path class="cls-19" d="m55.39,611.2c2.63,2.63,6.18,5.13,9.94,5.19-3.46-1.35-6.58-3.55-9.94-5.19Z"/>
        <path class="cls-19" d="m26.36,775.6c-.51-1.62-.7-3.33-1.14-4.98.05,1.75-.02,3.64.75,5.25.36.65,1.34,1.46,1.68,1.77-.37-.72-.98-1.29-1.3-2.05Z"/>
        <path class="cls-19" d="m29.21,805.51c-.73-.72-1.52-.97-2.26-1.58-.61-.39-1.14-1.01-1.64-1.71-1.74-2-2.19-2.97-3.41-4.66-.02-.03-.05-.07-.07-.1-.11-.16.08.12.08.13-.17-.25-.34-.51-.52-.75-1.53-2.39-2.49-5.45-3.77-8.21.53,2.07,1.12,4.13,1.72,6.18.26.96.56,1.92,1.06,2.78,1.59,2.9,3.56,5.26,5.44,6.76.95.69,1.89.75,2.83,1,.14.01.65.25.55.15Z"/>
        <path class="cls-19" d="m21,804.32c-.54-.53-1.15-.95-1.63-1.61-.58-.87-.99-1.88-1.32-2.91-1.03-2.76-1.92-5.57-2.94-8.33.68,3.84,1.07,8.25,3.25,11.54.77,1.23,1.9,1.36,2.87,1.93.9.85.14-.19-.23-.61Z"/>
        <path class="cls-19" d="m13.89,802.69c-.39-.63-.88-1.15-1.23-1.83-.38-1.04-.75-2.1-1-3.21-.58-2.34-1.12-4.69-1.48-7.09-.01,3.6.17,7.69,1.81,10.89.62,1,1.51,1.41,2.29,2.03.53.53-.2-.55-.39-.79Z"/>
        <path class="cls-19" d="m179.74,810.92c.34,3.01,1.03,6.24-.11,9.15,1.99-2.66,1.26-6.28.11-9.15Z"/>
        <path class="cls-19" d="m65.15,585.09c1.83,3.63,5.87,5.27,9.6,6.19-3.29-1.89-6.91-3.46-9.6-6.19Z"/>
        <path class="cls-8" d="m123.32,466.58c-.09-2.13-.27-4.62-1.66-6.08,1.05,1.9.77,4.36.85,6.55.02,2.24.53,4.49.33,6.72.68-2.26.49-4.81.48-7.19Z"/>
        <path class="cls-8" d="m98.88,455.72c-.32-1.19-1.01-2.29-1.16-3.52.03-.86.4-1.66.5-2.51.06-.56.07-1.69-.01-1.96-.21.65-.35,1.33-.66,1.94-.49.97-1.24,1.91-1.22,3.06.18,1.83.55,3.72,1.32,5.39,2.03,3.75,6.21,5.26,10.08,6.37-3.48-2.29-7.53-4.55-8.85-8.78Z"/>
        <path class="cls-32" d="m131.39,585.26l13.68-20.92c.26-.39.79-.48,1.16-.2l27.91,21.57c1.98,1.53,3.83,3.23,5.51,5.08l19.1,20.96c4.02,4.41,6.56,9.97,7.27,15.89l4.31,36,7.1,34.27c.49,2.36.8,4.75.92,7.16l1.72,33.38c.17,3.24-.05,6.48-.66,9.67l-6.11,32.21-.27,28.63-9.65.31c-4.62.15-9.17-1.14-13.02-3.69l-11.9-7.87c-.82-.54-1.23-1.53-1.04-2.5l5.8-29c.6-3.01,1.03-6.05,1.27-9.11l2.16-27.26c.3-3.77-.07-7.55-1.08-11.19l-5.76-20.7-7.76-35.95c-.06-.29-.49-.27-.52.03l-2.89,27.11c-.3,2.81-.36,5.64-.17,8.46l1.29,19.78c.03.5-.24.98-.69,1.2l-14.01,7.01c-3.12,1.56-6.41,2.72-9.82,3.47l-22.21,4.87c-2.3.5-4.64.76-6.99.76h-25.17c-3.86,0-7.67-.87-11.14-2.56l-12.55-6.08-.27-35.11-13.24,36.73-15.13,31.06-4.05,7.83-11.07,1.62-14.59,4.86,1.35-11.07,13.24-25.93,10.86-23.06c1.57-3.34,2.64-6.89,3.16-10.54l1.88-13.15c.64-6.35,1.85-5.64,3.39-12.05l1.15-7.23c-.14-2.07,1.46-7.16,1.79-9.21l7.99-37.36c.21-1.28.37-2.57.5-3.87l2.31-23.84c.47-4.81,3.33-9.07,7.61-11.31l25.97-14.99-1.15,21.27c-.05,1.37.56,2.68,1.64,3.52h0c4.16,3.23,9.6,4.3,14.67,2.87l14.73-4.71c4.35-1.39,8.3-3.84,11.47-7.12Z"/>
        <path class="cls-28" d="m82.46,572.25l-2.43-.94c-.39-.15-.81-.22-1.24-.21l-7.81.27c-.89.03-1.73.44-2.3,1.12l-3.45,4.12c-.11.13-.24.26-.37.37l-3.91,3.34c-.32.28-.59.61-.77.99-.48.97-1.35,2.88-1.26,3.67s-1.45,2.68-2.3,3.65c-.36.41-.6.9-.71,1.44l-.87,4.31c-.07.35-.2.68-.38.98l-2.33,3.91c-.49.82-.58,1.82-.24,2.71l1.66,4.43c.16.42.22.87.19,1.32l-.11,1.53c-.03.45.04.91.2,1.33l1.25,3.29c.21.56.58,1.05,1.06,1.41l2.51,1.86c.44.32.95.53,1.49.59l.77.09c.42.05.84.08,1.26.09h0c1.21.03,2.4-.33,3.39-1.02l.57-.4c1.47-1.03,2.73-2.35,3.69-3.87l1.07-1.69c.2-.31.46-.57.77-.75l2.35-1.43c1.14-.7,1.86-1.92,1.92-3.25l.04-.95c.05-1.13.7-2.15,1.71-2.67h0c1.3-.66,2.22-1.91,2.46-3.35l.17-1.03c.2-1.19-.3-2.38-1.28-3.08l-3.68-2.61c-.47-.33-.84-.79-1.07-1.31l-.62-1.44c-.48-1.1-.28-2.39.5-3.3l2.7-3.14c.39-.46.91-.79,1.49-.96l1.53-.45c.37-.11.75-.15,1.14-.12l4.07.32c.32.03.64,0,.95-.07l1.47-.34c1.58-.36,2.62-1.86,2.41-3.47h0c-.18-1.4-1.27-2.5-2.67-2.7l-1.18-.17c-.46-.07-.91-.24-1.3-.5l-2.44-1.63"/>
        <path class="cls-8" d="m88.07,494.1c.22-3.06-.37-6.12-.25-9.19-1.01,3.28-1.15,6.78-.96,10.18.52,1.94,1.29,4.13,2.08,5.82-.23-2.14-.85-4.7-.87-6.82Z"/>
        <path class="cls-8" d="m160.15,493.16c.53,3.69,4.13,8.44.58,11.54,1.56-.62,2.29-2.39,2.34-3.97-.09-2.73-1.83-5.13-2.92-7.57Z"/>
        <g>
          <path class="cls-24" d="m167.86,480.61s.25-.24.26-.25c0,0-.25.24-.25.23,0,0,.24,0,.23-.02,0,0-.25-.02-.25-.02,0,0,0,0,0,0-.06-.01-.18-.12-.26-.17,0-.02-.18-.07-.1-.03-.22-.19-.5-.32-.79-.36-.05,0-.15,0-.18.03-.18.04-.37-.03-.54-.06-.51-.13-.89-.5-1.34-.77-.52-.31-1.12-.43-1.65-.7-.23-.1-1.09-1.14-1.45-1.75-.16-.35-.43-.66-.58-1.01.07-.44-.07-.92-.24-1.33-.28-.53-.35-1.23-.76-2.12-.7-1.32-1.72-2.42-2.55-3.64-1.17-1.13-2.13-1.84-3.07-2.54-.67-.45-1.45-.67-2.04-1.25-1.26-.98-2.54-2.9-3.83-4.21,1.09,1.8,1.81,3.79,3.22,5.22.44.59,1.08.93,1.67,1.34.18.19,1.17,1.13,1.65,1.59,1.12,1.03,1.8,2.4,2.48,3.2.94,1.13.96,1.88,1.61,3.14.02.04.04.07.06.11,0,0,0,.03.02.07.02.06.06.14.08.2,0,0,0,0,0,0,0-.02,0-.01-.02-.04.01.03.01.05.02.05,0,.01,0,.02,0,.03-.15.74.48,1.26.82,1.77.71.9,1.53,1.87,2.63,2.27.59.14,1.2.22,1.76.47.66.34,1.5.64,2.21.32,0,0,.02-.02.03-.02-.03.02-.03.02,0,.01.26-.04.51.11.76.13.05.02.11.04.16.07-.04,0-.06,0-.02.02.05,0,.1.01.15.02.02,0,.04.01.05.01.01,0,0-.01.01-.02Z"/>
          <path class="cls-24" d="m160.72,474.42s0-.02-.01-.03c-.02-.05,0,0,.01.03Z"/>
          <path class="cls-24" d="m160.72,474.42s0,0,0,.01c0,.02.01.04.02.05,0,0-.01-.03-.03-.07Z"/>
        </g>
        <path class="cls-9" d="m148.48,455.81l.29.65c.32.71.03,1.54-.66,1.91l-.76.4c-.47.25-1.04.23-1.49-.06l-2.61-1.68-1.34-.94c-.57-.4-.78-1.15-.51-1.79l1.23-2.89s.02-.05.03-.07l.97-2.65c.03-.09.07-.18.12-.26l1.45-2.39c.4-.66,1.24-.9,1.93-.56l1.03.51c.74.37,1.03,1.28.65,2.01l-.48.91c-.27.51-.22,1.13.14,1.59l.99,1.29c.53.69.35,1.7-.39,2.16h0c-.63.39-.87,1.18-.57,1.86Z"/>
      </g>
      <g id="Mig">
        <path class="cls-10" d="m335.57,504.78l2.53,21.47,16.6-16.68c1.39-1.15,3.22-1.62,5-1.3l2.66.48-8.84,21.53c-.17.41-.33.83-.47,1.26l-.36,1.06c-1.11,3.25-.85,6.8.71,9.86l5.66,11.09,10.09,2.56c.6.15,1.24-.05,1.65-.53l8.42-9.97c.56-.66,1.07-1.36,1.53-2.09l13.13-20.71c.7-1.11,1.28-2.29,1.72-3.52l4.39-12.32c1.14-3.19,1.57-6.58,1.26-9.95l-.74-8.21c-.08-.92-.22-1.84-.42-2.74l-10.48-48.14-65.48-2.52,11.45,69.38Z"/>
        <path class="cls-16" d="m337.06,325.82l-11.41,1.7c-3.97.59-7.13,3.65-7.85,7.6h0c-.72,3.95-2.66,7.56-5.56,10.34l-5.04,4.83c-2.46,2.35-3.06,6.04-1.49,9.06l4.07,7.78-3.65,20.55-2.31,16.33-6.34,16.71-3.83,11.95,8.2-4.77c1.49-.9,3.3-1.08,4.94-.51l6.05,2.13c1.02.36,1.67,1.37,1.58,2.45l-.67,8.06c-.09,1.07-.47,2.09-1.11,2.95l-4.59,6.18,3.9-.88c5.04-1.14,9.23-4.6,11.3-9.34h0s1.33-3.04,1.33-3.04l17.1,3.27,16.9.19,21.32,3.84,12.1,4.19,11.88-39.18c.78-2.54,1.32-5.14,1.59-7.78l1.27-12.27c.54-5.2-.44-10.44-2.8-15.1h0c-2.05-4.05-3.37-8.43-3.88-12.93l-.22-1.93c-.61-5.34-2.67-10.41-5.97-14.65l-8.4-10.8"/>
        <path class="cls-26" d="m329.65,296.93c-4.82-29.94,10.85-43.25,32.25-43.25,31.02,0,35.45,23.48,34.25,44.5-1.5,26.34-12.85,43.5-34.25,43.5s-27.54-15.47-32.25-44.75Z"/>
        <path class="cls-3" d="m359.89,313.79s1.09-1.16,2.29-.15"/>
        <path class="cls-3" d="m365.94,314.07s1.09-1.16,2.29-.15"/>
        <g class="cls-4">
          <path class="cls-33" d="m367.24,306.25c-.06.53-.07,1.06-.07,1.59s-.05,1.04.18,1.52c.11.22.45.18.62.08.2-.12.35-.35.24-.58-.18-.37-.11-.84-.1-1.24,0-.49.01-.99.07-1.48.03-.24-.19-.39-.41-.36-.23.03-.49.21-.52.46h0Z"/>
        </g>
        <path class="cls-44" d="m358.08,323.18l1.71-1.66s.05-.05.07-.07l.81-.76c.82-.77,1.89-1.2,3.01-1.2h.4c.86,0,1.69.28,2.38.79l.66.49s.08.06.13.08l2.09,1.25c.14.08.27.19.37.32h0c.68.83.5,2.07-.39,2.67l-.49.33c-.14.09-.28.17-.42.25l-.59.3c-.74.38-1.58.55-2.41.49l-.93-.07-1.96-.12c-.27-.02-.71.03-1.1.02-.34,0-1.81-1.17-2.07-1.44l.27.09c-.14-.07.08.15-.05.06l-1.83-1.17c-.08-.06.26-.57.34-.63Z"/>
        <path class="cls-21" d="m371.7,555.73l3.45,9.93c.14.4.25.81.33,1.22l2.36,11.71,1.14,5.92c.31,1.63.15,3.31-.48,4.84l-1.84,4.51c-.86,2.11-2.89,3.5-5.16,3.54l-3.66.07c-1.66.03-3.3-.38-4.75-1.19l-2.72-1.53c-1.35-.76-2.5-1.82-3.38-3.09l-5.86-8.57c-.44-.64-.81-1.32-1.11-2.03l-5.67-13.37-4.42-9.7c-.62-1.36-.93-2.84-.91-4.33l.03-2.95c.02-2.26,1.1-4.38,2.9-5.74l10.28-8.25,2.1,6.03c.45,1.8.78,1.95,2.16,5.68.15.4.32.79.52,1.17l1.59,2.98h0c4.72,2.27,6.29,2.55,10.18,3.05l2.24-.3c.29-.04.56.13.66.4Z"/>
        <path class="cls-25" d="m330.53,301.73l-1.23-.63c-.76-.39-1.66-.41-2.44-.07h0c-.5.22-.83.69-.87,1.24l-.15,2.15c-.03.41-.02.82.02,1.23h0c.09.91.38,1.79.84,2.58l1.95,3.35,2.34,3.61c.76,1.17,1.21,2.52,1.3,3.91l.07,1.01c.03.42.24.81.57,1.07h0c1.09.83,2.61-.16,2.31-1.49l-3.93-16.98c-.1-.42-.38-.78-.76-.97Z"/>
        <path class="cls-25" d="m395.93,300.45l.94.16c1.39.23,2.41,1.43,2.42,2.84,0,.62-.05,1.19-.14,1.5l-1.28,4.4c-.21.71-.55,1.38-1,1.98l-4.42,5.79,3.49-16.66Z"/>
      </g>
      <g id="Jose">
        <path class="cls-30" d="m262.51,713.29l-5.27,7.68c-2.89,3.23,8.83,8.94,8.98,13.27"/>
        <path class="cls-30" d="m270.89,709.96l-9.21,7.21c-1.29,1-1.79,2.72-1.24,4.26l1.95,5.44c.75,2.08,1.98,3.95,3.61,5.45l6.43,5.94c1.32,1.22,2.83,2.24,4.45,3.02l3.62,1.73c3.03,1.45,6.42,2,9.75,1.58l2.28-.29c1.95-.25,3.84-.89,5.53-1.89l3.06-1.8c1.52-.89,2.88-2.02,4.05-3.34l1.32-1.49c2.08-2.36,3.54-5.2,4.24-8.27l.92-4.03c.16-.72.28-1.45.35-2.18l.72-9.49"/>
        <path class="cls-26" d="m263.92,684.1c-2.07-22.27,13.63-41,30.75-41s33.69,18.53,29.5,40.5c-4.56,23.89-13.6,36.6-30.75,39.25-17.84-1.82-27-11.79-29.5-38.75Z"/>
        <path class="cls-11" d="m297.67,650.95l3.41,6.5c.08.16.19.3.32.42l15.24,14.55c.09.08.18.16.28.22l.66.4c3.43,2.07,5.73,5.6,6.22,9.58h0c.02.2.01.4-.04.6l-3.62,14.58c-.52,2.1-1.34,4.11-2.43,5.98l-2.47,4.22c-.9,1.55.37,3.46,2.14,3.23l8.68-1.14c2.1-.26,4.12-1,5.88-2.16l.95-.63c3.42-2.25,5.86-5.71,6.84-9.68l.56-2.26c.73-2.97.71-6.07-.07-9.03l-5.66-21.67-5.47-17.69c-.75-2.41-1.94-4.66-3.52-6.63l-6.87-8.55c-2.12-2.63-4.94-4.61-8.14-5.68l-4.79-1.61c-2.39-.8-4.92-1.12-7.44-.92l-11.6.9c-2.81.22-5.54,1.08-7.97,2.5l-9.52,5.59c-2.02,1.19-3.79,2.75-5.23,4.6l-7.75,10.01c-.93,1.2-1.67,2.53-2.19,3.94l-4.61,12.38c-.4,1.09-.72,2.2-.94,3.34l-2.38,12.25c-.31,1.62-.48,3.26-.49,4.91l-.07,9.83c-.02,2.53.55,5.02,1.67,7.29l.94,1.91c1.21,2.45,2.97,4.59,5.15,6.24l2.59,1.97,3.06,2.39c.48.37,1.01.67,1.57.88l4.65,1.73c.57.21,4.41-3.68,5.73-5.47.3-.41.4-.93.26-1.42l-5.07-17.86c-.03-.11-.05-.21-.06-.32-.3-3.21-.21-6.44.27-9.63.02-.16.02-.32,0-.48l-1.01-6.24c-.03-.19-.03-.38,0-.56.55-3.18,2.01-6.14,4.19-8.53l9.78-10.69c.46-.5.98-.93,1.57-1.27l8.72-5.12c2.86-1.68,6.55-.63,8.09,2.31Z"/>
        <path class="cls-40" d="m292.45,697.01c-.87-1.05-2.35-1.56-3.68-1.27"/>
        <path class="cls-40" d="m300.07,696.88c-1.28-.75-2.94-.78-4.25-.1"/>
        <path class="cls-22" d="m283.77,704.7l6.62-1.02,3.58-.06c.44,0,.89.03,1.32.12l3.67.75,4.47,1.07c.21.05.31.3.18.48l-1.96,2.79c-.37.52-.86.95-1.43,1.23l-2.65,1.33c-.57.29-1.2.43-1.84.42l-3.36-.05c-.33,0-.66-.05-.98-.14l-2.77-.74c-.56-.15-1.08-.41-1.54-.78l-.63-.51c-.34-.27-.63-.6-.85-.97l-2.05-3.41c-.12-.2,0-.46.23-.5Z"/>
        <path class="cls-2" d="m284.92,705.74c.43-.87,4.87-.33,4.87-.33l2.7.14c.09,0,.18.01.27.02,0,0,2.31.29,3.09.37.67.07,2.7.24,2.7.24l3.51.17c.16,0,.25.19.15.32l-.47.62c-.45.6-1.06,1.06-1.75,1.32l-.47.18c-.58.22-1.2.31-1.82.27l-2.24-.17-2.65-.1-3.63-.86-2.36-.74s-2.1-1.07-1.91-1.46Z"/>
        <path class="cls-38" d="m260.86,718.05l4.62,12.82c.56,1.33,1.45,2.5,2.6,3.37l6.22,5.31c3.79,2.89,8.43,4.44,13.2,4.4l3.9-.04c3.86-.04,7.51-1.79,9.95-4.78l3.24-3.97c.5-.62.95-1.28,1.32-1.98l6.36-15.54,17.51,9.18,12.24,5.99c1.87.91,3.42,2.36,4.46,4.16l5.94,10.27c.86,1.48,1.44,3.1,1.72,4.79l4.33,26.27c.11.64.17,1.29.18,1.93l.9,33.16c.06,2.19-.11,4.37-.5,6.53l-.5,21.49-141.19.23-.92-39.9c-.07-2.08.02-4.17.26-6.24l4.37-36.24c.4-3.27,1.27-6.47,2.61-9.49l3.04-6.87c2.99-6.76,8.27-12.25,14.92-15.49l19.21-9.37Z"/>
        <path class="cls-12" d="m320.94,646.75c-1.29-2.81-3.98-4.86-6.81-5.88-2.6-1.31-4.96-3.04-7.4-4.61,2.17,2.18,4.37,4.46,7.08,5.97,2.51,1.16,4.97,2.82,6.44,5.21.69,1.02.63,3.26.86,3.9.17-1.52.5-3.14-.17-4.59Z"/>
        <path class="cls-12" d="m276.21,646.49c-.92.46-1.49,1.33-1.87,2.26-.38.65-.97,1.14-1.45,1.72-.34.35-.59.77-.95,1.1.2-.08.4-.21.59-.34.86-.6,1.83-1.06,2.56-1.81.45-.54.78-1.23,1.45-1.56,4.03-1.45,4.96-6.16,5.55-9.92-1.3,3.13-2.54,6.99-5.89,8.54Z"/>
        <path class="cls-12" d="m290.61,626.87c1.11,2.54,2.37,4.82,3.12,6.99.89,2.6,1.21,5,1.47,7.67,1.1-6.1-.84-10.02-4.59-14.67Z"/>
        <path class="cls-12" d="m329.2,684.67c-.08-3.86-.88-7.7-1.79-11.44-.75-3.21-.97-6.41-1.32-9.55-.37,2.87-.59,5.77-.49,8.66.31,2.76.63,4.52.9,6.93.76,4.75,2.35,9.51-.1,14.39,2.29-2.46,2.86-5.73,2.8-8.98Z"/>
        <path class="cls-12" d="m258.18,691.97c-.29-3.6.76-7.05,1.68-10.48-1.26,2.24-2.64,4.49-3.29,7-.58,2.56-.67,5.25-.41,7.86.29,2.32.87,4.17.1,6.79-.09.44-.51,1.36-.49,1.52.53-.55.99-1.16,1.4-1.8,1.82-3.3.83-7.28,1.02-10.88Z"/>
        <path class="cls-12" d="m249.02,676.64c-.29,2.06-.53,4.59-.68,6.17.96-1.77,1.49-3.69,1.96-5.63,1.14-3.41,1.83-6.94,2.1-10.52-1.19,3.3-2.57,6.56-3.37,9.98Z"/>
      </g>
      <path class="cls-26" d="m396.02,482.06l-1.22-1.54c-.63-.79-.92-1.8-.82-2.8l.18-1.79c.24-2.35-.74-4.67-2.6-6.13l-2.13-1.68-1.01-1.48c-1.1-1.62-2.86-2.67-4.8-2.88l-1.4-.15c-1.53-.17-3.07-.07-4.57.27l-13.95,3.23c-.71.16-1.44-.12-1.87-.71l-1.44-2.03c-.55-.78-.4-1.85.33-2.45l3.63-2.96,7.78-.86c1.35-.15,2.61-.77,3.56-1.76l.38-.39c1.49-1.55,1.7-3.94.51-5.73-.56-.83-1.47-1.35-2.47-1.4l-9.84-.5c-1.96-.1-3.89.47-5.49,1.6l-12.17,8.67-6.55,15.02s-.01.03-.02.04c-1.08,2.45-3.38,4.15-6.02,4.63l-2.83.06,3.94,22.88,15.14,2.93,8.86,3.14c1.64.58,3.38.87,5.13.84l6.04-.1c1.28-.02,2.56-.2,3.79-.54l7.31-2.01c1.43-.39,2.75-1.09,3.88-2.04l7.66-6.47c1.52-1.28,2.6-3,3.11-4.92l1.15-4.35c.52-1.97.08-4.06-1.19-5.66Z"/>
      <path class="cls-45" d="m385.14,482.32l1.92,1.33c.15.1.29.21.42.33l1.4,1.29c.17.16.32.33.46.52l.96,1.38c.24.34.41.73.5,1.13l.29,1.27c.04.16,0,.32-.11.45l-.75.9-.86-.99-.77-1.82c-.18-.42-.42-.82-.72-1.17l-.04-.05c-.49-.58-1.08-1.06-1.75-1.42l-1-.55-1.49-.74c-.22-.11-.29-.38-.15-.58l.76-1.11c.21-.3.62-.38.92-.17Z"/>
      <path class="cls-19" d="m356.32,465.87c1.6.28,3.21.11,4.75-.11-1.53-.25-3.36-.12-4.75.11Z"/>
      <path class="cls-19" d="m362.96,457.05c.42.66.85,1.32,1.4,1.89-.32-.63-.99-1.63-1.4-1.89Z"/>
      <path class="cls-19" d="m385.84,479.83c-1.5,2.23-2.9,4.34-5.03,5.92,2.84-1.01,5.41-5.6,7.01-8.06,1.46-2.03,2.86-4.5,3.53-6.96-1.32,2.48-3.95,6.79-5.51,9.1Z"/>
      <path class="cls-19" d="m375.47,473.6c-.87.9-1.77,2.12-1.58,3.44.31-1.46,2.55-3.56,3.59-4.49,2.5-2.39,4.92-4.09,6.99-7.01-2.74,2.24-6.85,5.2-9,8.06Z"/>
      <path class="cls-19" d="m391.44,489.41c-1,.89-2.2,1.52-3.19,2.43-1.55,1.5-3.6,2.42-4.99,4.09-.72.92-1.1,2.1-1.32,3.24-.06.59.05.03.21-.18.55-.82,1.1-1.68,1.86-2.31,1.2-.93,2.62-1.51,3.86-2.37,1.53-1.18,2.97-2.51,4.32-3.9,1.18-1.64,3.15-5.43,4.26-7.12-1.42,1.28-3.73,4.71-5,6.12Z"/>
      <path class="cls-26" d="m402.75,411.96l-12.41-.3-3.72-15.02-9.07-10.26-10.7-7.73h0c-2.19-1.09-4.81-.87-6.77.59l-.74.55c-.38.28-.51.8-.29,1.23l1.11,2.22c.07.15-.03.32-.19.33l-3.99.18c-3.7.16-7.18,1.77-9.71,4.47l-1.69,1.81c-.6.64-1.15,1.33-1.65,2.05h0c-1.82,2.66-2.64,5.88-2.31,9.08l.09.83-2.04,3.06c-1.13,1.69-1.27,3.86-.38,5.69l1.38,2.82c.28.57.26,1.25-.05,1.8h0c-1.24,2.19-1.15,4.9.23,7h0c.76,1.16,1.84,2.07,3.1,2.63l5.79,2.56,15.23,7.48c1.14.56,2.34,1.01,3.58,1.32l7.36,1.9,18.58,4.76,9.29-31.07Z"/>
      <path class="cls-19" d="m351.72,391.62c-1.44-.08-2.96-.34-4.33.24-.7.25-2.08.48-2.37.87.98-.29,2.03-.09,3.03-.34,1.31-.16,2.63.22,3.95.21,1.98.16,3.99-.35,5.96-.14-1.97-.72-4.17-.56-6.23-.85Z"/>
      <path class="cls-19" d="m375.65,387.98c-2.1-1.05-3.94-2.57-6.2-3.29-1.1-.69-4.77-1.65-6.41-1.4,1.11.26,2.09.81,3.11,1.28.79.31,1.55.67,2.22,1.19,1.47.77,2.91,1.58,4.31,2.47.79.42,1.67.65,2.47,1.04,1.85,1.37,3.75,2.69,5.82,3.72-1.91-1.53-3.49-3.42-5.32-5.02Z"/>
      <path class="cls-35" d="m395.05,407.38h6.17c.88,0,1.6.71,1.6,1.6v39.65h-9.5v-39.52c0-.96.78-1.73,1.73-1.73Z" transform="translate(128.17 -90.45) rotate(15.42)"/>
      <path class="cls-19" d="m345.43,399.95c-1.49-.23-3,.21-4.24,1.03,1.42-.33,2.89-.4,4.33-.11,2.2-.01,4.38.18,6.57.47-2.12-.89-4.33-1.55-6.65-1.39Z"/>
      <path class="cls-19" d="m342.53,414.19c-.97-.23-1.94.21-2.75,1.03.92-.33,1.88-.4,2.81-.11,1.43-.01,2.84.18,4.26.47-1.38-.89-2.81-1.55-4.32-1.39Z"/>
    </g>
    <path class="cls-18" d="m290.95,469.86l.15,18.43c0,.53.04,1.07.11,1.6l2.27,17.72c.2,1.56.64,3.07,1.3,4.41l2.65,5.41c.42.86,2.9,6.83,3.11,5.89l-.65-8.61c-1.4-8.1-1.79-10.82-2.1-13.22l-1.29-11.32c-.22-1.72-.76-4.5-1.39-6.43-.32-.99-.55-2.02-.72-3.06l-1.86-11.32c-.47-1.09-1.58-.74-1.57.49Z"/>
  </g>
  <g id="Billede">
    <path class="cls-17" d="m573.14,814.41c-3.3-1.41-6.95-1.06-10.45-1.07-.31,0-.62,0-.92,0,.22-1.97.4-4.06.44-6.05.77-.29,1.57-.53,2.41-.74,2.89-.66,5.88-1.2,8.84-.82-3.01-.57-7.53-.7-11.24.38-.03-3.46-.57-6.49-2.22-7.93-2.49-1.55-4.86.95-6.24,2.85-1.84,2.72-2.08,6.17-2.47,9.34-.15,1.72-.22,3.44-.27,5.16-1.3.18-2.59.38-3.88.61,1.29,0,2.58-.02,3.87-.06-.06,2.91-.01,5.81.1,8.72.3-2.92.63-5.85,1.05-8.76,2.25-.1,4.5-.28,6.74-.52-.03.64-.05,1.29-.07,1.93,0,2.9-.49,6.19,1.14,8.76,3.45,4.43,7.63,1.95,8.24-2.4-1.4,3.66-4.28,5.17-6.62,1.99-1-1.36-.79-3.1-.66-5.1.09-1.34.35-3.23.61-5.35.78.04,1.58.04,2.34.06,4.02.05,7.13-.02,9.98,1.7,1.99,1.06,3.57,3.54,2.88,4.92-1.56,2.72-2.38,4.02-5.08,6.17-2.86,2.43-3.33,2.31-7.53,3.88,5.14-.68,5.74-.02,9.67-3.46,1.99-1.85,4.08-4.07,4.88-6.77.47-3.45-2.63-6.23-5.56-7.43Zm-15.28-2.51c-.15-.66.42-1.79,1.25-2.69-.01,1.25-.05,2.5-.1,3.74-.56-.22-.96-.55-1.15-1.05Zm-5.59,3.46c.28-1.92.59-3.83.98-5.72.79-3.38,1.39-5.93,3.08-7.55,1.06-.96.81-.89,1.83-1.42,0,0,0,0,0,0,.01,0,.03,0,.05,0,.02,0,.04,0,.06.01,0,.01.02.03.02.04.54,1.81.47,2.18.64,3.48.1,1.09.14,2.18.16,3.27-.97.62-1.79,1.39-2.35,2.34-1.01,1.56-.68,3.59.98,4.55.3.18.62.32.94.44-2.13.11-4.26.29-6.38.55Z"/>
  </g>
</svg>